<svg width="197" height="34" viewBox="0 0 197 34" fill="none" xmlns="http://www.w3.org/2000/svg">
<path d="M188.694 33.9597C186.672 33.9597 185.047 33.5942 183.818 32.8632C182.589 32.1167 181.75 31.0825 181.298 29.7606C180.847 28.4386 180.762 26.899 181.042 25.1416C181.322 23.3997 181.897 21.93 182.768 20.7325C183.655 19.5195 184.79 18.5941 186.174 17.9565C187.574 17.3188 189.16 17 190.933 17C192.131 17 193.157 17.1322 194.012 17.3966C194.883 17.661 195.606 18.0187 196.182 18.4697L194.922 21.2924C194.269 20.8725 193.647 20.577 193.056 20.4059C192.465 20.2349 191.711 20.1493 190.793 20.1493C189.098 20.1493 187.745 20.6081 186.734 21.5257C185.723 22.4277 185.085 23.7185 184.821 25.3982C184.557 27.1245 184.751 28.4697 185.404 29.434C186.057 30.3982 187.286 30.8803 189.09 30.8803C189.759 30.8803 190.381 30.8259 190.956 30.717C191.547 30.6082 192.162 30.4449 192.799 30.2271L191.75 31.6268L192.449 27.1945H188.834L189.253 24.605H195.879L194.596 32.6533C194.051 32.9332 193.445 33.1743 192.776 33.3764C192.107 33.5631 191.423 33.703 190.723 33.7964C190.023 33.9052 189.347 33.9597 188.694 33.9597Z" fill="#282828"/>
<path d="M162.455 33.703L165.068 17.2566H167.774L174.865 28.8274L174.259 28.6175L176.078 17.2566H179.461L176.848 33.703H174.142L167.05 22.1322L167.657 22.3422L165.837 33.703H162.455Z" fill="#282828"/>
<path d="M155.484 33.703L158.096 17.2566H161.736L159.123 33.703H155.484Z" fill="#282828"/>
<path d="M146.241 33.9597C144.997 33.9597 143.823 33.8119 142.718 33.5164C141.63 33.2209 140.735 32.8399 140.036 32.3733L141.225 29.5273C141.941 29.9316 142.742 30.2738 143.628 30.5537C144.53 30.8181 145.51 30.9503 146.567 30.9503C147.687 30.9503 148.504 30.7792 149.017 30.4371C149.546 30.0949 149.849 29.6595 149.927 29.1307C150.004 28.6486 149.911 28.2598 149.647 27.9643C149.382 27.6532 148.877 27.4433 148.13 27.3344L145.564 26.8912C144.134 26.6579 143.06 26.1214 142.345 25.2815C141.645 24.4262 141.396 23.3375 141.599 22.0156C141.754 20.9891 142.151 20.1027 142.788 19.3562C143.441 18.6096 144.297 18.0342 145.354 17.6299C146.412 17.21 147.625 17 148.994 17C150.067 17 151.078 17.14 152.026 17.4199C152.991 17.6843 153.76 18.0653 154.336 18.563L153.123 21.3157C152.563 20.9269 151.91 20.6159 151.163 20.3826C150.417 20.1338 149.569 20.0093 148.62 20.0093C147.609 20.0093 146.809 20.1804 146.218 20.5226C145.627 20.8647 145.277 21.3391 145.168 21.9456C145.09 22.4277 145.183 22.8398 145.448 23.182C145.728 23.5241 146.256 23.7574 147.034 23.8818L149.577 24.3017C151.054 24.535 152.135 25.0638 152.819 25.8881C153.504 26.6968 153.737 27.7621 153.519 29.084C153.379 30.0327 152.998 30.8725 152.376 31.6035C151.754 32.3344 150.93 32.9099 149.903 33.3298C148.877 33.7497 147.656 33.9597 146.241 33.9597Z" fill="#282828"/>
<path d="M130.002 33.9596C128.509 33.9596 127.242 33.6952 126.2 33.1665C125.173 32.6377 124.442 31.8445 124.007 30.787C123.571 29.7139 123.478 28.3531 123.727 26.7045L125.243 17.2566H128.882L127.366 26.8912C127.148 28.1975 127.265 29.1929 127.716 29.8772C128.183 30.5459 129.069 30.8803 130.375 30.8803C131.542 30.8803 132.444 30.5537 133.082 29.9005C133.735 29.2473 134.178 28.2287 134.411 26.8445L135.928 17.2566H139.52L137.957 26.9845C137.708 28.5397 137.265 29.8383 136.627 30.8803C135.99 31.9067 135.119 32.6766 134.015 33.1898C132.926 33.703 131.589 33.9596 130.002 33.9596Z" fill="#282828"/>
<path d="M105.043 25.0716C105.323 23.3608 105.859 21.9067 106.652 20.7092C107.461 19.4961 108.495 18.5785 109.755 17.9565C111.015 17.3188 112.446 17 114.047 17C115.836 17 117.298 17.3888 118.433 18.1664C119.584 18.9285 120.385 19.9782 120.836 21.3157C121.303 22.6377 121.396 24.154 121.116 25.8647C120.852 27.5755 120.307 29.0374 119.483 30.2505C118.674 31.448 117.64 32.3656 116.38 33.0032C115.136 33.6408 113.713 33.9597 112.111 33.9597C110.323 33.9597 108.853 33.5786 107.702 32.8166C106.567 32.039 105.774 30.9814 105.323 29.6439C104.872 28.3064 104.778 26.7823 105.043 25.0716ZM108.822 25.3049C108.635 26.4868 108.651 27.4899 108.869 28.3142C109.086 29.1385 109.491 29.7761 110.082 30.2271C110.688 30.6626 111.458 30.8803 112.391 30.8803C113.775 30.8803 114.88 30.406 115.704 29.4573C116.544 28.5086 117.088 27.2333 117.337 25.6315C117.523 24.4495 117.5 23.4464 117.267 22.6221C117.049 21.7978 116.637 21.168 116.03 20.7325C115.439 20.2971 114.67 20.0793 113.721 20.0793C112.337 20.0793 111.24 20.5459 110.432 21.479C109.623 22.4122 109.086 23.6874 108.822 25.3049Z" fill="#282828"/>
<path d="M86 33.703L88.6128 17.2566H92.252L91.2022 23.8585H98.7372L99.787 17.2566H103.45L100.837 33.703H97.1742L98.2707 26.8678H90.7123L89.6392 33.703H86Z" fill="#282828"/>
<path d="M66.8792 34C63.8799 34 61.3336 33.4935 59.2403 32.4804C57.1783 31.4674 55.7098 29.9479 54.835 27.9218C53.9602 25.8659 53.7728 23.2588 54.2727 20.1006L57.3189 2H64.6297L61.5835 20.4581C61.1461 22.9609 61.3805 24.8678 62.2865 26.1788C63.2238 27.46 65.0047 28.1006 67.6291 28.1006C69.9723 28.1006 71.7844 27.4749 73.0654 26.2235C74.3776 24.9721 75.268 23.0205 75.7367 20.3687L78.7829 2H86L82.8601 20.6369C82.3602 23.6164 81.4698 26.1043 80.1888 28.1006C78.9078 30.067 77.1582 31.5419 74.94 32.5251C72.7529 33.5084 70.066 34 66.8792 34Z" fill="#24C2D8"/>
<path d="M24 33.8929L29.2255 1H41.1229C45.1976 1 48.4791 1.69985 50.9675 3.09954C53.4869 4.49924 55.2132 6.48992 56.1464 9.07158C57.1106 11.6221 57.3128 14.6704 56.7529 18.2163C55.9131 23.4107 53.7824 27.3298 50.3609 29.9737C46.9706 32.5865 42.476 33.8929 36.8772 33.8929H24ZM32.2115 27.9208H37.0638C40.7652 27.9208 43.6268 27.0966 45.6486 25.448C47.7015 23.7684 49.0079 21.2489 49.5678 17.8897C50.1277 14.0949 49.6455 11.3266 48.1214 9.5848C46.5973 7.81185 43.9845 6.92538 40.2831 6.92538H35.5242L32.2115 27.9208Z" fill="#24C2D8"/>
<path d="M12.4106 33.9193C9.92229 33.9193 7.57391 33.6238 5.3655 33.0328C3.1882 32.4418 1.3997 31.6798 0 30.7467L2.37948 25.0546C3.81028 25.8633 5.41216 26.5476 7.18511 27.1074C8.98916 27.6362 10.9487 27.9006 13.0638 27.9006C15.3033 27.9006 16.9363 27.5585 17.9628 26.8742C19.0203 26.1899 19.6268 25.3189 19.7824 24.2614C19.9379 23.2972 19.7513 22.5196 19.2225 21.9286C18.6937 21.3065 17.6828 20.8866 16.1898 20.6688L11.0576 19.7824C8.196 19.3158 6.0498 18.2427 4.619 16.5631C3.2193 14.8523 2.72163 12.675 3.12599 10.0312C3.43703 7.97827 4.23019 6.20532 5.50547 4.71231C6.81185 3.2193 8.52259 2.06844 10.6377 1.25973C12.7528 0.419909 15.1789 0 17.9161 0C20.0623 0 22.0841 0.279939 23.9815 0.839818C25.9099 1.36859 27.4496 2.13065 28.6005 3.12599L26.1743 8.63146C25.0546 7.85385 23.7482 7.23176 22.2552 6.7652C20.7622 6.26753 19.067 6.01869 17.1696 6.01869C15.1478 6.01869 13.5459 6.36084 12.364 7.04514C11.182 7.72943 10.4822 8.67811 10.2644 9.89118C10.1089 10.8554 10.2955 11.6797 10.8243 12.364C11.3842 13.0483 12.4417 13.5148 13.997 13.7637L19.0825 14.6035C22.0374 15.0701 24.1992 16.1276 25.5678 17.7761C26.9364 19.3936 27.4029 21.5242 26.9675 24.1681C26.6875 26.0654 25.9255 27.7451 24.6813 29.207C23.4371 30.6689 21.7886 31.8198 19.7357 32.6596C17.6828 33.4994 15.2411 33.9193 12.4106 33.9193Z" fill="#24C2D8"/>
</svg>
